<svg width="23" height="24" viewBox="0 0 23 24" fill="none" xmlns="http://www.w3.org/2000/svg">
<path d="M17.25 8.16663C17.25 6.64163 16.6442 5.1791 15.5659 4.10076C14.4875 3.02243 13.025 2.41663 11.5 2.41663C9.97501 2.41663 8.51247 3.02243 7.43414 4.10076C6.3558 5.1791 5.75 6.64163 5.75 8.16663C5.75 14.875 2.875 16.7916 2.875 16.7916H20.125C20.125 16.7916 17.25 14.875 17.25 8.16663Z" stroke="#727272" stroke-width="2" stroke-linecap="round" stroke-linejoin="round"/>
<path d="M13.1575 20.625C12.989 20.9154 12.7472 21.1565 12.4562 21.3241C12.1653 21.4917 11.8354 21.5799 11.4996 21.5799C11.1638 21.5799 10.8339 21.4917 10.543 21.3241C10.252 21.1565 10.0102 20.9154 9.84167 20.625" stroke="#727272" stroke-width="2" stroke-linecap="round" stroke-linejoin="round"/>
</svg>
