<svg width="19" height="19" viewBox="0 0 19 19" fill="none" xmlns="http://www.w3.org/2000/svg">
<path d="M2.96159 5.5769H13.4231C13.5965 5.5769 13.7628 5.64579 13.8855 5.76841C14.0081 5.89103 14.077 6.05734 14.077 6.23075V12.1154C14.077 12.809 13.8014 13.4742 13.3109 13.9647C12.8205 14.4552 12.1552 14.7308 11.4616 14.7308H4.92312C4.22948 14.7308 3.56425 14.4552 3.07377 13.9647C2.58329 13.4742 2.30774 12.809 2.30774 12.1154V6.23075C2.30774 6.05734 2.37663 5.89103 2.49925 5.76841C2.62187 5.64579 2.78817 5.5769 2.96159 5.5769Z" fill="#CB76D5" stroke="#CB76D5" stroke-linecap="round" stroke-linejoin="round"/>
<path d="M1 18H18" stroke="#CB76D5" stroke-linecap="round" stroke-linejoin="round"/>
<path d="M14.0769 6.88477H15.3846C16.0782 6.88477 16.7435 7.16031 17.234 7.65079C17.7244 8.14127 18 8.80651 18 9.50015C18 10.1938 17.7244 10.859 17.234 11.3495C16.7435 11.84 16.0782 12.1155 15.3846 12.1155H14.0769" stroke="#CB76D5" stroke-linecap="round" stroke-linejoin="round"/>
<path d="M4.26923 1V2.30769" stroke="#CB76D5" stroke-linecap="round" stroke-linejoin="round"/>
<path d="M10.8077 1V2.30769" stroke="#CB76D5" stroke-linecap="round" stroke-linejoin="round"/>
<path d="M7.53845 1V2.30769" stroke="#CB76D5" stroke-linecap="round" stroke-linejoin="round"/>
</svg>
