<svg width="775" height="728" viewBox="0 0 775 728" fill="none" xmlns="http://www.w3.org/2000/svg">
<path d="M588.619 389.222C520.786 397.868 517.228 395.399 517.228 395.399L474.637 395.77C474.637 395.77 452.582 369.74 375.304 404.717L360.006 409.48C360.006 409.48 335.564 415.588 324.948 422.437C314.344 429.287 301.908 436.716 301.908 436.716C301.908 436.716 290.713 442.452 295.731 453.37C296.264 454.517 297.04 455.514 298.026 456.383C286.239 458.052 278.254 460.265 279.193 460.648C339.782 485.658 378.526 461.007 393.094 448.398L550.281 473.64C550.281 473.64 632.334 473.13 655.699 476.711C679.063 480.292 754.406 478.762 775 472.098V330.869C774.989 330.869 656.452 380.576 588.619 389.222Z" fill="white" stroke="black" stroke-miterlimit="10"/>
<path d="M279.181 462.815C277.582 461.888 304.724 455.05 331.125 456.453C331.125 456.453 350.213 450.275 353.585 450.554C353.585 450.554 366.786 439.045 375.768 439.323C375.768 439.323 400.569 436.241 402.829 444.539C402.829 444.539 361.408 510.285 279.181 462.815Z" fill="white" stroke="black" stroke-miterlimit="10"/>
<path d="M340.767 425.149C340.767 425.149 343.444 439.798 347.802 451.55Z" fill="white"/>
<path d="M340.767 425.149C340.767 425.149 343.444 439.798 347.802 451.55" stroke="black" stroke-miterlimit="10"/>
<path d="M375.003 420.409C375.003 420.409 365.719 430.272 368.791 440.842Z" fill="white"/>
<path d="M375.003 420.409C375.003 420.409 365.719 430.272 368.791 440.842" stroke="black" stroke-miterlimit="10"/>
<path d="M331.125 456.441C331.125 456.441 329.085 463.047 329.723 467.926Z" fill="white"/>
<path d="M331.125 456.441C331.125 456.441 329.085 463.047 329.723 467.926" stroke="black" stroke-miterlimit="10"/>
<path d="M353.585 450.554C353.585 450.554 358.302 451.84 359.994 454.969Z" fill="white"/>
<path d="M353.585 450.554C353.585 450.554 358.302 451.84 359.994 454.969" stroke="black" stroke-miterlimit="10"/>
<path d="M353.852 488.092C428.554 488.092 489.112 427.534 489.112 352.831C489.112 278.129 428.554 217.571 353.852 217.571C279.15 217.571 218.592 278.129 218.592 352.831C218.592 427.534 279.15 488.092 353.852 488.092Z" fill="white" stroke="black" stroke-miterlimit="10"/>
<path d="M464.149 315.63C466.42 314.204 466.582 312.964 464.786 310.82C464.299 310.241 463.812 309.649 463.326 309.07C463.488 308.931 463.662 308.803 463.824 308.664C465.504 310.681 467.185 312.698 469.341 315.27C469.201 313.833 469.132 313.161 469.039 312.199C469.7 312.987 470.175 313.555 470.731 314.227C473.582 310.101 471.554 306.659 469.341 303.229C469.422 304.005 469.561 304.794 469.561 305.57C469.561 305.941 469.375 306.497 469.097 306.625C468.819 306.764 468.205 306.613 467.985 306.37C467.788 306.138 467.788 305.57 467.915 305.222C469.004 302.209 467.973 299.567 466.258 297.226C465.632 296.38 464.253 296.078 463.024 295.8C458.609 288.765 455.271 280.884 449.059 274.36C450.983 278.312 452.721 281.881 454.657 285.856C452.652 285.242 451.458 284.918 450.299 284.512C449.94 284.385 449.476 284.153 449.337 283.851C448.329 281.661 447.182 279.644 444.539 279.158C443.38 278.949 442.21 278.787 440.831 278.578C441.341 279.656 441.758 280.548 442.418 281.928C437.319 278.868 432.811 276.168 427.677 273.085C428.059 275.971 428.337 278.045 428.65 280.433C431.733 280.05 435.059 280.131 436.276 284.28C435.21 286.216 433.691 286.123 431.988 285.289C431.524 285.068 431.049 284.883 430.574 284.697C427.491 283.446 426.147 284.002 424.93 286.691L429.716 289.553C429.635 289.82 429.647 289.785 429.554 290.052L424.999 289.692C424.768 290.307 424.779 290.26 424.547 290.886C426.865 292.659 429.16 294.456 431.513 296.183C432.138 296.646 432.834 296.994 433.587 297.191C434.595 297.457 435.696 297.654 436.728 297.539C438.652 297.33 443.044 300.111 443.797 301.954C444.562 303.855 445.617 305.64 446.892 307.32C448.932 303.02 444.284 301.189 443.774 297.678C444.157 297.596 444.678 297.504 445.304 297.376C445.223 296.148 444.991 294.896 445.095 293.668C445.246 291.813 446.289 290.909 448.028 292.068C449.812 293.274 451.423 294.745 453.127 296.125C453.15 295.986 453.254 295.429 453.405 294.641C454.807 295.383 456.129 296.09 457.438 296.797C457.392 296.936 457.345 297.075 457.299 297.214C456.696 297.029 456.082 296.855 454.854 296.495C456.627 300.482 458.203 304.063 459.895 307.853C459.339 307.934 458.899 308.039 458.447 308.039C457.612 308.05 456.789 308.015 455.955 307.992C455.966 309.07 455.665 310.275 456.059 311.191C456.87 313.068 458.47 314.668 458.956 316.58C459.443 318.469 459.617 320.996 458.725 322.549C457.624 324.472 457.612 325.991 458.4 327.694C459.211 329.421 460.312 330.997 461.251 332.666C461.448 333.014 461.518 333.443 461.761 334.15C460.753 333.883 460.034 333.686 459.119 333.443C459.095 337.476 459.072 341.335 459.026 345.206C459.003 347.304 457.137 348.532 455.329 347.431C453.753 346.469 452.397 346.272 450.809 347.164C449.337 347.987 448.642 346.956 448.468 345.809C448.051 342.923 446.208 342.019 443.624 341.949C441.016 341.88 439.162 340.443 437.528 338.611C436.728 337.719 435.94 336.827 435.175 335.911C433.773 334.231 432.196 334.126 430.875 335.795C428.893 338.287 426.506 338.936 423.655 337.8C422.867 337.487 421.824 336.757 421.72 336.085C421.557 335.111 421.824 333.663 422.484 333.049C423.562 332.04 425.034 331.217 426.471 330.893C428.801 330.36 428.662 329.386 427.746 327.659C426.958 326.164 426.344 324.542 425.903 322.896C425.057 319.698 426.46 318.121 429.774 318.55C431.524 318.782 433.228 319.361 435.117 319.825C435.372 318.851 435.499 317.936 435.859 317.113C436.183 316.371 436.797 315.143 437.215 315.166C439.498 315.294 440.124 313.092 441.677 312.234C443.079 311.457 442.72 310.113 441.283 309.534C439.069 308.641 438.177 306.996 437.481 304.805C437.099 303.577 435.673 302.394 434.422 301.78C432.162 300.668 429.693 300.007 426.97 299.045C425.961 300.019 424.547 301.398 423.064 302.835C418.59 301.027 416.794 297.956 417.686 293.413C418.057 291.524 416.759 290.11 414.441 290.226C412.251 290.33 410.072 290.654 407.917 291.083C407.117 291.245 406.422 291.941 405.564 292.462C404.15 292.416 402.365 292.37 400.58 292.312C400.534 292.567 400.488 292.822 400.441 293.077C399.456 292.034 398.518 290.944 397.486 289.947C396.489 288.986 395.574 287.745 393.893 289.09C393.511 289.391 392.178 289.148 391.796 288.707C389.524 286.169 388.029 288.58 386.627 289.611C384.923 290.863 385.792 292.567 386.87 293.876C388.064 295.325 388.296 296.855 388.516 298.721C388.724 300.598 389.999 302.823 391.518 303.971C394.728 306.404 396.513 309.719 398.541 312.964C398.738 313.277 399.028 313.648 398.749 313.984C397.277 315.769 396.594 318.063 397.486 320.196C399.491 324.982 399.897 322.861 398.703 325.11C398.019 323.696 397.382 322.699 397.046 321.621C396.362 319.431 395.852 317.183 395.215 314.981C395.029 314.343 394.786 313.567 394.299 313.196C393.638 312.674 392.734 312.489 391.935 312.153L391.251 314.934C389.617 316.151 387.774 317.878 385.317 316.313C383.811 315.363 382.443 314.181 380.508 312.709C382.107 311.944 383.115 311.678 383.822 311.063C384.494 310.472 384.842 309.534 385.34 308.734C384.506 308.56 383.637 308.166 382.825 308.259C381.458 308.421 380.137 308.885 378.143 309.395C378.827 311.307 379.163 313.636 380.403 315.317C381.829 317.252 382.42 319.141 382.339 321.424C382.327 321.842 382.339 322.328 382.524 322.676C382.988 323.545 383.567 324.345 384.1 325.179C384.46 324.322 384.912 323.499 385.155 322.606C385.248 322.259 384.877 321.784 385.051 321.401C388.435 324.611 389.744 334.034 387.635 337.313C387.369 337.232 387.067 337.093 386.754 337.047C386.233 336.966 385.7 336.943 385.167 336.885C385.259 337.487 385.271 338.113 385.479 338.669C386.221 340.767 388.087 341.381 389.953 342.1C391.367 342.645 392.688 343.433 394.032 344.128C394.032 344.499 394.032 344.568 394.021 344.939C392.63 345.623 391.205 346.249 389.849 346.991C386.383 348.857 386.325 349.146 388.759 352.472C385.688 353.029 383.532 354.361 384.703 357.908C384.193 358.093 383.88 358.244 383.556 358.313C379.441 359.299 378.375 362.822 381.238 366.009C383.799 368.848 383.741 368.802 381.18 371.85C380.6 372.534 380.322 373.704 380.369 374.631C380.531 377.992 379.024 380.171 375.883 381.411C374.748 381.852 373.623 382.315 372.511 382.837C370.796 383.636 371.213 383.578 369.614 384.575C368.165 385.479 365.986 386.453 367.122 388.562C367.469 389.211 370.054 389.049 371.433 388.655C374.052 387.901 374.249 387.229 376.869 386.464C378.526 385.977 380.554 385.189 381.713 387.693C381.898 388.11 383.185 388.017 383.405 388.052C385.004 389.964 386.244 391.691 387.728 393.175C389.849 395.295 389.895 395.481 386.407 397.324C388.724 398.761 390.671 399.978 392.618 401.171C394.612 402.4 396.617 403.628 398.239 404.625C397.15 407.557 396.246 409.991 395.342 412.425C395.284 412.587 395.238 412.784 395.11 412.877C390.579 416.434 388.643 423.203 381.678 423.771C381.435 423.794 381.191 423.933 380.948 424.002C379.453 424.42 377.402 425.66 376.556 425.092C374.157 423.492 372.013 421.325 370.274 418.996C369.776 418.324 370.575 416.017 371.456 415.113C373.276 413.213 371.456 415.113 371.955 412.239C372.047 411.729 370.969 409.052 370.668 408.646C368.258 405.425 367.887 405.54 365.859 408.948C364.166 411.787 362.092 414.383 359.983 417.373C359.206 416.62 358.534 416.04 357.955 415.38C357.12 414.406 356.402 413.352 355.556 412.378C352.809 409.226 349.286 409.04 346.794 412.367C344.511 415.415 341.88 417.049 338.102 416.237C337.094 416.017 336.132 415.252 335.344 414.534C334.741 413.978 334.474 413.085 334.022 412.355C332.574 410.014 330.824 408.171 327.729 408.264C326.756 408.287 325.759 407.8 324.623 407.511C324.38 408.252 324.148 408.971 323.916 409.689C323.627 409.701 323.337 409.713 323.047 409.736C322.85 408.357 322.653 406.966 322.41 405.228C321.042 404.822 318.945 404.381 317.009 403.57C316.094 403.188 315.595 401.832 314.691 401.403C311.84 400.07 310.623 397.694 309.441 394.959C308.757 393.383 306.926 392.305 305.512 390.903C304.353 391.679 302.997 392.583 301.537 393.557C299.822 392.027 298.037 391.413 295.279 391.703C293.39 391.9 290.689 389.35 289.206 387.391C286.216 383.439 281.499 381.237 276.562 382.35C275.137 382.674 273.12 382.512 272.425 383.393C271.648 384.39 272.077 386.314 271.926 387.832C271.868 388.4 271.683 388.956 271.219 389.756C270.42 382.396 264.787 380.194 259.178 377.146C257.405 373.241 251.239 366.901 246.418 365.186C245.097 364.711 243.88 363.598 242.906 362.509C241.04 360.423 239.615 360.342 238.108 362.671C237.517 363.575 236.891 364.746 236.984 365.731C237.309 369.578 235.188 375.837 236.08 379.58C236.521 381.434 236.3 382.176 234.678 382.895C229.347 385.282 227.713 393.001 231.537 397.428C234.446 400.8 240.82 408.415 238.873 412.378C238.757 412.61 238.572 412.842 238.572 413.074C238.514 418.312 238.41 423.516 241.852 428.036C244.1 430.991 245.827 434.387 248.203 437.214C252.792 442.673 257.694 447.888 262.214 452.93C263.64 451.249 264.613 449.963 265.737 448.804C267.8 446.66 269.875 444.539 272.065 442.522C274.024 440.726 276.237 439.915 278.799 441.433C279.68 441.954 280.734 442.186 281.557 442.766C286.575 446.3 292.161 445.721 297.817 445.362C301.329 445.142 304.887 445.64 308.421 445.64C309.708 445.64 310.994 445.153 312.454 444.852C312.466 443.519 312.466 442.244 312.478 440.877C313.706 441.317 314.877 442.175 315.56 441.873C316.406 441.514 316.719 440.077 317.473 439.324C319.362 437.469 318.411 435.082 318.747 432.961C319.292 429.577 320.961 427.166 324.392 426.517C326.86 426.054 327.347 424.663 327.44 422.473C327.509 420.781 328.39 419.112 328.39 417.431C328.39 415.693 327.764 413.943 327.3 411.625C328.077 411.579 329.746 411.034 330.152 411.532C330.812 412.343 330.661 413.827 330.847 415.032C330.569 415.171 330.279 415.322 330.001 415.461C330.766 415.901 331.531 416.342 332.296 416.782C333.385 417.408 334.451 418.103 335.587 418.625C336.514 419.054 337.534 419.274 338.531 419.552C338.762 419.61 339.122 419.39 339.272 419.506C343.051 422.252 347.049 419.54 350.897 420.016C351.916 420.143 353.041 420.456 353.875 421.047C357.317 423.469 360.655 425.857 365.244 425.497C367.632 425.312 369.521 426.309 370.181 428.997C370.378 429.786 371.166 430.747 371.92 431.026C377.622 433.158 383.022 436.287 389.258 436.739C390.208 436.809 391.436 436.635 392.12 436.067C395.527 433.262 399.642 433.228 403.686 432.694C407.743 432.161 411.787 431.431 415.797 430.632C417.895 430.214 419.888 428.824 422.554 430.481C421.511 431.141 420.792 431.872 419.935 432.103C417.072 432.903 414.152 433.506 411.266 434.224C408.334 434.943 405.413 435.696 402.504 436.484C402.099 436.589 401.797 437.041 401.45 437.33C401.519 437.55 401.6 437.759 401.67 437.979C404.104 437.55 406.549 437.133 408.983 436.693C409.724 436.565 410.455 436.206 411.185 436.241C413.213 436.322 415.658 438.315 416.806 434.769C416.922 434.41 418.046 434.398 418.695 434.189C420.966 433.494 423.249 432.822 425.509 432.08C427.734 431.35 429.832 429.867 432.347 431.084C432.602 431.211 433.042 431.107 433.344 430.979C438.802 428.777 444.261 426.656 448.248 421.916C451.087 418.532 454.274 415.449 457.322 412.251C457.6 411.961 458.018 411.555 458.354 411.579C461.321 411.752 462.514 409.446 464.218 407.696C466.038 405.83 468.124 404.208 470.187 402.597C470.581 402.295 471.508 402.33 472.018 402.574C474.243 403.628 476.41 404.81 478.948 406.131C480.281 402.539 481.706 399.004 482.877 395.4C484.082 391.668 484.986 387.843 486.099 384.088C487.13 380.635 487.397 377.285 485.809 373.89C485.38 372.974 485.601 371.746 485.496 370.204L481.95 369.984C482.019 368.06 482.089 366.078 482.182 363.679C483.908 364.027 485.427 364.328 487.594 364.769C488.22 362.509 489.205 360.017 489.506 357.444C489.634 356.332 488.672 354.501 487.687 353.956C483.955 351.893 483.503 348.416 483.109 344.835C482.877 342.691 483.086 340.466 482.622 338.38C481.985 335.436 480.617 337.731 479.377 338.264L476.99 335.401C476.711 338.716 476.375 341.474 478.044 344.256C479.006 345.855 479.168 347.964 479.562 349.876C480.038 352.206 480.408 354.57 480.745 356.923C480.849 357.664 480.687 358.453 480.652 359.217C480.409 359.229 480.165 359.252 479.922 359.264C479.296 355.671 478.543 352.09 478.102 348.462C477.847 346.307 477.662 344.476 475.831 342.807C473.756 340.918 473.211 338.067 473.605 335.251C473.687 334.706 474.788 334.37 475.019 333.779C475.842 331.681 475.019 330.522 471.983 329.375C471.519 330.545 471.056 331.716 470.592 332.886C470.453 332.817 470.314 332.747 470.175 332.678C470.523 330.221 470.859 327.764 471.253 324.994L473.513 328.019C475.761 326.222 476.167 322.375 474.417 320.544C474.15 320.265 473.721 319.987 473.362 319.987C471.45 319.999 469.538 320.092 467.486 320.173C467.382 319.582 467.266 319.002 467.173 318.434C466.976 317.206 466.849 315.943 465.006 316.638C464.879 316.684 464.45 315.919 464.16 315.537C464.264 316.522 464.369 317.519 464.496 318.84C461.668 317.426 461.46 315.873 463.233 313.242C463.581 314.169 463.87 314.899 464.149 315.63Z" fill="white" stroke="black" stroke-miterlimit="10"/>
<path d="M237.216 284.952C239.036 282.437 240.843 279.911 242.906 277.048C243.509 278.149 243.834 278.763 244.204 279.435C245.085 279.053 245.92 278.694 247.264 278.126C247.403 280.374 247.38 282.379 247.716 284.315C247.936 285.555 248.724 286.69 249.188 287.907C249.686 289.217 250.312 290.527 250.474 291.894C250.718 293.957 251.541 295.174 253.685 295.545C256.918 296.089 259.943 297.017 263.35 295.383C265.436 294.386 268.461 295.475 270.698 294.641C273.12 293.737 275.693 292.114 277.2 290.075C279.923 286.389 282.415 282.878 287.166 281.545C288.488 281.174 289.878 279.679 290.458 278.346C291.999 274.788 293.193 271.068 294.363 267.359C294.92 265.609 295.024 263.72 295.476 261.935C295.777 260.753 296.032 259.223 296.867 258.574C299.834 256.291 301.306 253.464 301.665 249.743C302.024 246.058 305.003 245.131 308.421 246.475C309.835 247.031 312.2 245.826 313.869 244.934C316.383 243.589 318.632 241.77 321.066 240.24C322.943 239.058 323.198 238.2 321.425 236.752C319.536 235.21 317.392 233.982 315.213 232.521C318.574 227.619 324.067 230.424 328.9 229.184C325.632 226.541 325.493 223.551 327.046 219.402C318.864 221.859 311.319 224.119 303.763 226.391C303.82 226.611 303.878 226.831 303.936 227.051C304.655 227.005 305.373 226.947 305.582 226.935C306.637 228.199 307.448 229.172 308.027 229.867C307.494 231.374 307.019 232.997 306.324 234.515C305.953 235.315 305.327 236.149 304.585 236.601C301.931 238.27 301.306 240.472 302.824 243.045C303.16 243.624 303.137 244.412 303.276 245.108C302.488 245.038 301.375 245.281 300.981 244.853C299.88 243.647 298.57 242.268 298.292 240.785C297.91 238.745 297.168 237.296 295.441 236.253C294.143 235.465 292.868 233.889 291.64 233.947C290.388 234.005 289.229 235.651 288.001 236.543C287.468 236.937 286.738 237.609 286.274 237.493C283.087 236.67 280.815 238.536 278.544 240.089C261.612 251.656 247.739 266.142 237.286 283.828C237.112 284.118 237.031 284.442 236.903 284.755C236.996 284.825 237.1 284.882 237.216 284.952Z" fill="white" stroke="black" stroke-miterlimit="10"/>
<path d="M398.135 242.245C398.065 243.462 397.996 244.679 397.926 245.884C397.463 245.687 396.988 245.49 396.524 245.293C394.577 246.556 392.572 247.727 390.753 249.141C390.393 249.419 390.416 250.821 390.776 251.296C391.911 252.768 392.734 254.541 395.191 254.623C397.498 254.704 398.772 256.848 400.464 258.215C402.551 259.907 405.274 260.811 407.685 262.144C408.786 262.747 409.759 263.558 410.594 264.613C410.756 264.636 410.976 264.752 411.069 264.682C412.865 263.523 414.395 262.619 416.921 263.604C418.567 264.242 420.943 262.99 422.867 262.248C424.802 262.399 426.784 262.828 428.662 262.527C429.183 262.445 429.577 260.243 429.635 259.003C429.67 258.262 428.777 257.52 428.604 256.72C428.499 256.222 428.963 255.608 429.172 255.04C429.681 255.515 430.597 255.944 430.643 256.454C430.864 258.945 432.127 260.684 434.572 262.747C435.036 260.707 436.009 258.957 435.569 257.705C435.082 256.349 433.297 255.445 432.08 254.344C432.208 254.171 432.347 253.985 432.474 253.811C433.575 254.588 434.723 255.318 435.777 256.164C436.821 256.998 437.771 257.949 438.918 258.992C439.277 258.215 439.532 257.636 439.915 256.79C440.854 257.334 441.746 257.868 442.754 258.459C442.963 256.72 444.191 256.523 445.408 257.659C447.239 259.386 448.943 261.275 450.519 263.245C452.026 265.134 453.208 267.336 456.441 266.548C457.496 264.879 455.966 263.616 454.888 262.515C450.206 257.694 445.663 252.699 440.575 248.329C428.279 237.795 414.302 230.076 399.027 224.699C398.228 224.42 397.428 224.177 396.13 224.339C397.277 225.962 398.413 227.584 399.514 229.137C398.529 231.189 397.509 233.321 396.281 235.882C397.034 236.392 398.077 237.007 399.016 237.772C399.711 238.339 400.267 239.093 400.882 239.753C399.966 240.368 399.039 240.982 398.112 241.584C397.903 241.724 397.66 241.805 397.44 241.909C397.683 242.036 397.903 242.141 398.135 242.245Z" fill="white" stroke="black" stroke-miterlimit="10"/>
<path d="M382.536 290.851C382.014 292.427 381.574 293.76 380.925 295.719C379.14 294.467 377.61 293.285 375.976 292.3C375.489 292.01 374.701 292.172 374.052 292.195C373.438 292.219 372.824 292.335 371.943 292.45C371.885 292.682 371.734 293.296 371.711 293.424C370.286 293.633 369.138 293.69 368.107 294.05C367.852 294.131 367.736 295.684 367.91 295.753C368.941 296.217 370.065 296.437 371.572 296.854C371.723 297.527 371.978 298.72 372.348 300.366C373.044 299.589 373.426 299.172 374.133 298.384C376.196 300.853 378.143 303.194 380.264 305.732C381.782 301.873 383.173 298.558 384.378 295.174C384.958 293.505 384.378 292.068 382.536 290.851Z" fill="white" stroke="black" stroke-miterlimit="10"/>
<path d="M345.044 385.386C346.759 387.438 348.474 389.489 349.946 391.262C353.678 390.52 356.263 392.711 359.253 394.102C362.718 395.712 364.167 398.366 364.711 402.087C366.774 400.07 366.681 397.706 364.862 395.446C362.301 392.259 358.928 390.207 355.208 388.631C352.392 387.438 349.599 386.174 346.794 384.946C346.342 384.749 345.89 384.54 345.438 384.343C345.322 384.691 345.183 385.039 345.044 385.386Z" fill="white" stroke="black" stroke-miterlimit="10"/>
<path d="M389.478 230.181C389.049 228.987 388.921 228.616 388.678 227.944C389.814 228.686 390.695 229.265 391.564 229.833C391.738 229.682 391.9 229.532 392.074 229.369C391.425 228.593 390.915 227.619 390.103 227.086C387.589 225.429 385.074 223.691 382.339 222.45C380.241 221.5 377.819 221.257 375.396 221.094C376.648 224.177 379.221 225.556 381.666 226.912C383.926 228.176 386.464 228.952 389.478 230.181Z" fill="white" stroke="black" stroke-miterlimit="10"/>
<path d="M335.691 383.022C337.963 385.015 339.887 386.719 341.811 388.411C342.019 388.191 342.216 387.97 342.425 387.75C341.59 386.754 340.756 385.757 339.701 384.494C341.08 384.378 342.135 384.285 343.201 384.192C342.123 379.939 336.248 375.697 332.133 376.265C332.226 379.186 336.862 379.893 335.691 383.022Z" fill="white" stroke="black" stroke-miterlimit="10"/>
<path d="M455.584 327.219C456.441 324.588 457.183 322.282 457.774 320.451C454.286 318.33 451.087 316.383 447.877 314.424C447.657 314.586 447.437 314.737 447.216 314.899C447.726 315.629 448.074 316.649 448.769 317.02C450.844 318.121 452.072 319.535 452.084 322.015C452.095 323.336 452.026 324.982 454.216 325.075C454.645 325.098 455.004 326.268 455.584 327.219Z" fill="white" stroke="black" stroke-miterlimit="10"/>
<path d="M453.857 315.363C453.486 312.245 453.104 309.116 452.733 305.998C452.466 305.975 452.212 305.964 451.945 305.94C451.794 306.242 451.609 306.798 451.493 306.786C448.329 306.427 449.291 308.722 449.743 309.974C450.496 312.025 451.771 313.891 452.826 315.838C453.173 315.676 453.51 315.525 453.857 315.363Z" fill="white" stroke="black" stroke-miterlimit="10"/>
<path d="M451.331 300.169C452.733 297.747 452.42 296.75 449.952 295.208C448.294 297.156 448.607 298.384 451.331 300.169Z" fill="white" stroke="black" stroke-miterlimit="10"/>
<path d="M348.394 394.727C347.2 393.846 346.018 392.966 344.824 392.096C344.581 392.409 344.337 392.722 344.105 393.035C345.264 393.974 346.412 394.913 347.571 395.84C347.849 395.481 348.115 395.098 348.394 394.727Z" fill="white" stroke="black" stroke-miterlimit="10"/>
<path d="M326.791 372.081C327.672 372.881 328.541 373.692 329.445 374.457C329.468 374.469 330.187 373.715 330.163 373.692C329.364 372.811 328.518 371.977 327.672 371.131C327.382 371.444 327.092 371.757 326.791 372.081Z" fill="white" stroke="black" stroke-miterlimit="10"/>
<path d="M687.558 363.389C673.303 365.904 579.706 388.538 567.41 393C555.114 397.474 534.16 400.545 510.054 393.777C501.003 391.239 492.971 390.821 485.508 391.725C473.072 393.22 462.19 398.378 450.704 403.442C431.57 411.879 418.057 425.277 409.701 432.138C400.812 439.451 378.479 445.524 365.128 455.977C354.246 464.495 349.54 470.116 348.161 471.901C346.469 472.376 344.766 472.817 343.05 473.234C336.085 472.909 328.054 473.176 321.355 475.1C321.355 475.1 301.201 461.169 288.232 461.378C288.232 461.378 270.014 453.416 255.376 452.605C251.308 451.121 246.638 449.638 241.318 448.282C222.462 443.484 209.749 453.277 212.739 461.679C212.461 461.876 212.298 462.015 212.298 462.015C213.052 467.057 225.279 473.999 231.931 477.07C239.985 481.578 248.191 485.484 251.459 487.477C257.764 491.325 293.1 516.868 311.654 523.173C330.198 529.477 375.35 538.923 383.741 541.02C392.143 543.118 392.838 549.423 408.936 549.77C425.034 550.118 432.382 539.977 441.479 534.727C450.577 529.477 479.62 513.38 493.272 506.727C506.925 500.075 524.575 488.949 524.575 488.949C524.575 488.949 534.067 483.676 542.099 483.062C550.119 482.448 557.153 480.257 582.048 474.729C606.942 469.201 651.677 465.052 696.852 464.588C742.04 464.125 774.977 459.825 774.977 459.825V325.109C774.988 325.109 701.801 360.874 687.558 363.389Z" fill="white" stroke="black" stroke-miterlimit="10"/>
<path d="M359.148 474.799C359.148 474.799 336.467 470.325 320.949 474.799C320.949 474.799 300.795 460.868 287.826 461.077C287.826 461.077 259.177 448.549 244.853 453.324C244.853 453.324 229.033 460.184 241.573 469.433C254.113 478.681 263.952 485.252 272.61 489.123C281.267 493.006 301.259 505.233 312.303 507.62C323.348 510.007 336.769 518.665 363.934 522.246C391.088 525.827 394.971 530.602 394.971 530.602C394.971 530.602 411.683 541.345 422.727 530.602" fill="white"/>
<path d="M359.148 474.799C359.148 474.799 336.467 470.325 320.949 474.799C320.949 474.799 300.795 460.868 287.826 461.077C287.826 461.077 259.177 448.549 244.853 453.324C244.853 453.324 229.033 460.184 241.573 469.433C254.113 478.681 263.952 485.252 272.61 489.123C281.267 493.006 301.259 505.233 312.303 507.62C323.348 510.007 336.769 518.665 363.934 522.246C391.088 525.827 394.971 530.602 394.971 530.602C394.971 530.602 411.683 541.345 422.727 530.602" stroke="black" stroke-miterlimit="10"/>
<path d="M450.716 403.454C431.582 411.891 418.069 425.289 409.713 432.15C400.824 439.462 378.491 445.535 365.14 455.989C351.789 466.443 347.721 472.527 347.721 472.527C337.708 492.762 351.186 498.754 359.067 500.504C361.814 501.118 364.642 501.13 367.388 500.574C375.802 498.881 398.263 493.886 413.931 485.913C433.552 475.934 435.882 470.279 452.513 466.292" fill="white"/>
<path d="M450.716 403.454C431.582 411.891 418.069 425.289 409.713 432.15C400.824 439.462 378.491 445.535 365.14 455.989C351.789 466.443 347.721 472.527 347.721 472.527C337.708 492.762 351.186 498.754 359.067 500.504C361.814 501.118 364.642 501.13 367.388 500.574C375.802 498.881 398.263 493.886 413.931 485.913C433.552 475.934 435.882 470.279 452.513 466.292" stroke="black" stroke-miterlimit="10"/>
<path d="M236.74 464.426C236.74 464.426 239.024 462.804 241.469 462.526C243.451 462.305 254.067 471.971 257.938 475.564C259.143 476.688 260 478.137 260.348 479.736C260.557 480.663 261.159 482.564 260.348 482.425C257.764 481.996 237.702 470.928 236.74 464.426Z" fill="white" stroke="black" stroke-miterlimit="10"/>
<path d="M212.298 461.981C212.298 461.981 215.277 459.512 218.87 459.454C221.477 459.408 229.625 468.135 233.484 471.727C234.689 472.852 235.547 474.3 235.906 475.9C236.115 476.827 236.717 478.727 235.906 478.588C233.322 478.148 213.26 468.482 212.298 461.981Z" fill="white" stroke="black" stroke-miterlimit="10"/>
<path d="M367.075 467.126C367.075 467.126 377.089 478.473 377.251 490.804C377.251 490.804 365.349 500.18 359.948 500.689C354.547 501.199 347.443 498.035 345.125 492.658C343.039 487.814 342.135 484.858 343.155 481.347C343.989 478.461 345.89 476.016 348.474 474.474C352.716 471.971 356.83 468.819 367.075 467.126Z" fill="white" stroke="black" stroke-miterlimit="10"/>
<path d="M311.295 507.435C311.295 507.435 316.024 500.98 317.809 499.983Z" fill="white"/>
<path d="M311.295 507.435C311.295 507.435 316.024 500.98 317.809 499.983" stroke="black" stroke-miterlimit="10"/>
<path d="M318.805 509.903C318.805 509.903 321.969 506.136 321.969 504.549Z" fill="white"/>
<path d="M318.805 509.903C318.805 509.903 321.969 506.136 321.969 504.549" stroke="black" stroke-miterlimit="10"/>
<path d="M302.001 519.024C302.001 519.024 304.377 512.151 305.93 512.012Z" fill="white"/>
<path d="M302.001 519.024C302.001 519.024 304.377 512.151 305.93 512.012" stroke="black" stroke-miterlimit="10"/>
<path d="M310.762 515.524C310.762 515.524 310.148 520.531 308.039 521.817Z" fill="white"/>
<path d="M310.762 515.524C310.762 515.524 310.148 520.531 308.039 521.817" stroke="black" stroke-miterlimit="10"/>
<path d="M276.04 482.436C276.04 482.436 273.317 486.458 272.598 489.112Z" fill="white"/>
<path d="M276.04 482.436C276.04 482.436 273.317 486.458 272.598 489.112" stroke="black" stroke-miterlimit="10"/>
<path d="M256.13 483.943C256.13 483.943 254.449 486.898 253.974 489.123Z" fill="white"/>
<path d="M256.13 483.943C256.13 483.943 254.449 486.898 253.974 489.123" stroke="black" stroke-miterlimit="10"/>
<path d="M279.112 486.527C279.112 486.527 277.049 491.29 276.539 491.024Z" fill="white"/>
<path d="M279.112 486.527C279.112 486.527 277.049 491.29 276.539 491.024" stroke="black" stroke-miterlimit="10"/>
<path d="M259.236 486.527C259.236 486.527 258.54 490.305 256.825 491.035Z" fill="white"/>
<path d="M259.236 486.527C259.236 486.527 258.54 490.305 256.825 491.035" stroke="black" stroke-miterlimit="10"/>
<path d="M393.094 449.8C393.094 449.8 395.724 465.562 402.829 474.509Z" fill="white"/>
<path d="M393.094 449.8C393.094 449.8 395.724 465.562 402.829 474.509" stroke="black" stroke-miterlimit="10"/>
<path d="M402.828 454.969C402.828 454.969 411.509 472.145 410.617 480.037Z" fill="white"/>
<path d="M402.828 454.969C402.828 454.969 411.509 472.145 410.617 480.037" stroke="black" stroke-miterlimit="10"/>
<path d="M694.314 289.136C695.833 268.669 682.818 251.007 665.248 249.709C660.624 249.361 656.139 250.196 652.025 251.969C634.49 250.717 619.053 266.235 617.534 286.668C616.016 307.134 637.352 327.034 646.821 327.74C651.445 328.088 655.93 327.254 660.044 325.481C675.145 332.99 692.796 309.58 694.314 289.136Z" fill="white" stroke="black" stroke-width="5" stroke-miterlimit="10"/>
<path d="M631.836 292.798C627.675 262.48 652.025 251.957 652.025 251.957C652.025 251.957 649.093 238.027 661.551 229.497" fill="white"/>
<path d="M631.836 292.798C627.675 262.48 652.025 251.957 652.025 251.957C652.025 251.957 649.093 238.027 661.551 229.497" stroke="black" stroke-width="5" stroke-miterlimit="10"/>
<path d="M641.583 229.833C641.583 229.833 641.455 243.126 651.851 243.856C651.851 243.856 654.088 234.364 641.583 229.833Z" fill="white" stroke="black" stroke-width="5" stroke-miterlimit="10"/>
<path d="M672.098 223.806C672.098 223.806 669.653 242.512 654.888 236.682C654.888 236.694 653.613 221.917 672.098 223.806Z" fill="white" stroke="black" stroke-width="5" stroke-miterlimit="10"/>
<path d="M657.46 235.164C657.703 234.955 660.427 228.824 672.051 224.409Z" fill="white"/>
<path d="M657.46 235.164C657.703 234.955 660.427 228.824 672.051 224.409" stroke="black" stroke-width="5" stroke-miterlimit="10"/>
<path d="M62.3776 441.769H12.0911C5.96028 441.769 1 436.797 1 430.678V313.416C1 307.285 5.97187 302.325 12.0911 302.325H62.3776C68.5085 302.325 73.4687 307.297 73.4687 313.416V430.678C73.4687 436.808 68.4969 441.769 62.3776 441.769Z" fill="white" stroke="black" stroke-miterlimit="10"/>
<path d="M61.1611 439.532H13.2852C7.20071 439.532 2.26367 434.595 2.26367 428.51V315.583C2.26367 309.498 7.20071 304.561 13.2852 304.561H61.1611C67.2455 304.561 72.1827 309.498 72.1827 315.583V428.51C72.1827 434.595 67.2455 439.532 61.1611 439.532Z" fill="white" stroke="black" stroke-miterlimit="10"/>
<path d="M52.8742 309.475H21.5828C20.6324 309.475 19.7979 308.757 19.5777 307.737L19.0099 305.106C18.7085 303.692 19.6821 302.325 21.0149 302.325H53.4421C54.7749 302.325 55.7484 303.681 55.447 305.106L54.8792 307.737C54.659 308.757 53.8246 309.475 52.8742 309.475Z" fill="white" stroke="black" stroke-miterlimit="10"/>
<path d="M21.4785 435.731H52.9786" stroke="black" stroke-miterlimit="10"/>
<path d="M66.1558 136.503H159.3C156.449 124.068 142.658 123.859 142.658 123.859C143.156 118.088 136.666 118.354 136.666 118.354C135.577 112.733 129.793 109.882 125.54 110.16C125.552 109.963 125.552 109.766 125.552 109.569C125.552 101.944 119.374 95.7664 111.749 95.7664C107.449 95.7664 103.613 97.7366 101.075 100.819C100.252 100.692 99.4175 100.622 98.5599 100.622C92.4638 100.622 87.1443 103.96 84.3281 108.897C81.4771 107.924 76.6211 108.886 74.5929 110.914C71.5333 113.973 71.9737 117.717 71.881 121.692C71.8926 121.703 58.9819 127.127 66.1558 136.503Z" fill="white" stroke="black" stroke-miterlimit="10"/>
<path d="M159.3 136.503H63.9768V144.268H159.3V136.503Z" fill="white" stroke="black" stroke-miterlimit="10"/>
<path d="M159.3 144.28C165.674 154.641 162.707 166.949 159.914 174.192C158.373 178.19 158.732 182.676 160.864 186.396C163.704 191.333 165.222 195.273 166.022 198.194C166.879 201.346 164.573 204.023 161.374 204.649C137.57 209.273 99.7997 212.275 68.1722 204.371C49.9999 199.828 60.894 179.697 60.894 179.697C60.894 179.697 55.7366 166.091 62.9105 159.752C68.0794 155.197 63.9883 144.291 63.9883 144.291H159.3V144.28Z" fill="white" stroke="black" stroke-miterlimit="10"/>
<path d="M115.341 187.578C115.341 187.578 110.022 185.515 113.012 179.616C113.012 179.616 111.424 174.459 116.906 173.149C116.906 173.149 118.146 167.899 122.538 168.814C122.538 168.814 127.846 165.338 126.931 171.932C126.931 171.932 129.341 174.122 127.035 177.24C127.035 177.24 128.009 183.718 121.97 185.179C121.959 185.179 119.676 190.081 115.341 187.578Z" fill="white" stroke="black" stroke-miterlimit="10"/>
<path d="M123.303 172.848C123.303 172.848 122.33 178.665 118.575 181.69C115.712 183.997 113.302 189.328 113.823 194.091" fill="white"/>
<path d="M123.303 172.848C123.303 172.848 122.33 178.665 118.575 181.69C115.712 183.997 113.302 189.328 113.823 194.091" stroke="black" stroke-miterlimit="10"/>
<path d="M107.739 179.431C107.739 179.431 113.058 177.368 110.068 171.469C110.068 171.469 111.656 166.311 106.174 165.002C106.174 165.002 104.934 159.752 100.542 160.667C100.542 160.667 95.2335 157.19 96.1491 163.785C96.1491 163.785 93.7385 165.975 96.0448 169.093C96.0448 169.093 95.0713 175.571 101.109 177.032C101.121 177.02 103.404 181.922 107.739 179.431Z" fill="white" stroke="black" stroke-miterlimit="10"/>
<path d="M99.7766 164.689C99.7766 164.689 100.75 170.507 104.505 173.531C107.368 175.838 109.778 181.169 109.257 185.932" fill="white"/>
<path d="M99.7766 164.689C99.7766 164.689 100.75 170.507 104.505 173.531C107.368 175.838 109.778 181.169 109.257 185.932" stroke="black" stroke-miterlimit="10"/>
<path d="M84.3396 108.909C84.3396 108.909 80.7701 114.24 84.3396 120.243Z" fill="white"/>
<path d="M84.3396 108.909C84.3396 108.909 80.7701 114.24 84.3396 120.243" stroke="black" stroke-miterlimit="10"/>
<path d="M92.5731 113.291C92.9736 112.384 92.4058 111.254 91.3049 110.768C90.2039 110.282 88.9868 110.624 88.5863 111.532C88.1858 112.44 88.7536 113.569 89.8545 114.055C90.9554 114.541 92.1725 114.199 92.5731 113.291Z" fill="white" stroke="black" stroke-miterlimit="10"/>
<path d="M98.1085 118.873C98.509 117.965 97.9412 116.836 96.8403 116.35C95.7394 115.864 94.5222 116.206 94.1217 117.114C93.7212 118.022 94.289 119.151 95.3899 119.637C96.4908 120.123 97.708 119.781 98.1085 118.873Z" fill="white" stroke="black" stroke-miterlimit="10"/>
<path d="M130.381 130.507C130.713 129.35 130.209 128.191 129.256 127.917C128.302 127.644 127.26 128.36 126.928 129.516C126.596 130.673 127.1 131.832 128.054 132.106C129.007 132.38 130.05 131.664 130.381 130.507Z" fill="white" stroke="black" stroke-miterlimit="10"/>
<path d="M135.445 126.36C135.777 125.203 135.273 124.044 134.319 123.77C133.366 123.496 132.323 124.212 131.992 125.369C131.66 126.525 132.164 127.685 133.117 127.959C134.071 128.232 135.113 127.516 135.445 126.36Z" fill="white" stroke="black" stroke-miterlimit="10"/>
<path d="M143.04 129.814C143.682 128.796 143.523 127.542 142.684 127.013C141.845 126.483 140.644 126.879 140.002 127.897C139.36 128.915 139.52 130.169 140.359 130.698C141.198 131.227 142.398 130.832 143.04 129.814Z" fill="white" stroke="black" stroke-miterlimit="10"/>
<path d="M132.606 120.571C132.827 119.802 132.492 119.031 131.858 118.849C131.224 118.667 130.532 119.143 130.311 119.912C130.091 120.681 130.425 121.452 131.059 121.634C131.693 121.816 132.385 121.34 132.606 120.571Z" fill="white" stroke="black" stroke-miterlimit="10"/>
<path d="M107.321 192.573C107.321 192.573 109.558 190.023 106.359 187.717C106.359 187.717 105.78 184.553 102.512 185.376C102.512 185.376 100.414 182.942 98.3396 184.634C98.3396 184.634 94.5731 184.263 96.8794 187.497C96.8794 187.497 96.2072 189.316 98.2933 190.336C98.2933 190.336 99.5682 194.021 103.161 193.129C103.161 193.129 105.711 195.088 107.321 192.573Z" fill="white" stroke="black" stroke-miterlimit="10"/>
<path d="M99.0352 186.987C99.0352 186.987 101.156 189.791 103.972 190.359C106.116 190.788 108.875 192.944 109.906 195.609" fill="white"/>
<path d="M99.0352 186.987C99.0352 186.987 101.156 189.791 103.972 190.359C106.116 190.788 108.875 192.944 109.906 195.609" stroke="black" stroke-miterlimit="10"/>
<path d="M401.056 619.319H314.286C312.617 619.319 311.273 617.963 311.273 616.306V615.529C311.273 613.86 312.629 612.516 314.286 612.516H401.056C402.725 612.516 404.069 613.872 404.069 615.529V616.306C404.081 617.975 402.725 619.319 401.056 619.319Z" fill="white" stroke="black" stroke-miterlimit="10"/>
<path d="M401.056 626.134H314.286C312.617 626.134 311.273 624.778 311.273 623.121V622.344C311.273 620.675 312.629 619.331 314.286 619.331H401.056C402.725 619.331 404.069 620.687 404.069 622.344V623.121C404.081 624.778 402.725 626.134 401.056 626.134Z" fill="white" stroke="black" stroke-miterlimit="10"/>
<path d="M384.101 726.649H330.801C322.526 726.649 315.816 719.939 315.816 711.664V626.134H399.097V711.652C399.097 719.939 392.387 726.649 384.101 726.649Z" fill="white" stroke="black" stroke-miterlimit="10"/>
<path d="M357.677 604.044C357.677 604.044 338.079 603.581 338.079 612.505H340.976C340.976 612.505 340.791 607.046 357.677 607.046C374.562 607.046 374.377 612.505 374.377 612.505H377.274C377.274 603.592 357.677 604.044 357.677 604.044Z" fill="white" stroke="black" stroke-miterlimit="10"/>
<path d="M331.96 640.539H326.721V719.556H331.96V640.539Z" fill="white" stroke="black" stroke-miterlimit="10"/>
<path d="M350.793 640.539H345.554V719.556H350.793V640.539Z" fill="white" stroke="black" stroke-miterlimit="10"/>
<path d="M369.625 640.539H364.387V719.556H369.625V640.539Z" fill="white" stroke="black" stroke-miterlimit="10"/>
<path d="M388.447 640.539H383.208V719.556H388.447V640.539Z" fill="white" stroke="black" stroke-miterlimit="10"/>
<path d="M118.115 598.336C122.928 591.817 119.766 581.318 111.053 574.886C102.341 568.454 91.3765 568.525 86.564 575.044C81.7514 581.563 84.9131 592.062 93.6258 598.494C102.338 604.926 113.303 604.855 118.115 598.336Z" fill="white" stroke="black" stroke-miterlimit="10"/>
<path d="M159.863 600.693C165.512 593.042 161.601 580.57 151.127 572.838C140.653 565.106 127.583 565.042 121.934 572.694C116.286 580.345 120.197 592.817 130.671 600.549C141.144 608.28 154.214 608.345 159.863 600.693Z" fill="white" stroke="black" stroke-miterlimit="10"/>
<path d="M144.964 590.716L140.015 586.335C140.015 586.335 127.8 597.45 127.163 613.026C127.163 613.026 124.312 591.84 132.691 574.908L111.053 588.989C111.053 588.989 120.742 614.44 111.053 641.976H128.913C128.913 641.976 128.53 600.88 144.964 590.716Z" fill="white" stroke="black" stroke-miterlimit="10"/>
<path d="M167.749 554.801C166.404 545.935 159.648 538.854 150.956 537.022C145.868 530.092 137.79 525.607 128.681 525.607C119.108 525.607 110.659 530.567 105.641 538.135C104.297 537.926 102.929 537.822 101.527 537.822C86.785 537.822 74.8247 549.771 74.8247 564.524C74.8247 579.278 86.7734 591.226 101.527 591.226C109.605 591.226 116.836 587.634 121.727 581.966C123.952 582.546 126.27 582.859 128.669 582.859C131.509 582.859 134.244 582.418 136.817 581.619C140.108 589.256 147.699 594.599 156.542 594.599C168.398 594.599 178.005 584.991 178.005 573.135C178.017 565.359 173.914 558.567 167.749 554.801Z" fill="white" stroke="black" stroke-miterlimit="10"/>
<path d="M150.956 537.022C150.956 537.022 155.035 543.014 154.804 549.724Z" fill="white"/>
<path d="M150.956 537.022C150.956 537.022 155.035 543.014 154.804 549.724" stroke="black" stroke-miterlimit="10"/>
<path d="M105.641 538.123C105.641 538.123 111.424 538.216 116.466 543.362Z" fill="white"/>
<path d="M105.641 538.123C105.641 538.123 111.424 538.216 116.466 543.362" stroke="black" stroke-miterlimit="10"/>
<path d="M287.491 104.169C284.79 104.169 282.588 101.967 282.588 99.2663V90.3772C282.588 87.6769 284.79 85.4749 287.491 85.4749C290.191 85.4749 292.393 87.6769 292.393 90.3772V99.2663C292.405 101.967 290.191 104.169 287.491 104.169Z" fill="white" stroke="black" stroke-miterlimit="10"/>
<path d="M328.123 104.169C325.423 104.169 323.221 101.967 323.221 99.2663V90.3772C323.221 87.6769 325.423 85.4749 328.123 85.4749C330.823 85.4749 333.025 87.6769 333.025 90.3772V99.2663C333.025 101.967 330.823 104.169 328.123 104.169Z" fill="white" stroke="black" stroke-miterlimit="10"/>
<path d="M307.03 95.7894C332.108 95.7894 352.438 75.4598 352.438 50.382C352.438 25.3042 332.108 4.97461 307.03 4.97461C281.953 4.97461 261.623 25.3042 261.623 50.382C261.623 75.4598 281.953 95.7894 307.03 95.7894Z" fill="white" stroke="black" stroke-miterlimit="10"/>
<path d="M307.03 93.0545C330.598 93.0545 349.703 73.9495 349.703 50.3822C349.703 26.815 330.598 7.70996 307.03 7.70996C283.463 7.70996 264.358 26.815 264.358 50.3822C264.358 73.9495 283.463 93.0545 307.03 93.0545Z" fill="white" stroke="black" stroke-miterlimit="10"/>
<path d="M307.031 52.1089C307.984 52.1089 308.757 51.3358 308.757 50.3821C308.757 49.4284 307.984 48.6553 307.031 48.6553C306.077 48.6553 305.304 49.4284 305.304 50.3821C305.304 51.3358 306.077 52.1089 307.031 52.1089Z" fill="white" stroke="black" stroke-miterlimit="10"/>
<path d="M305.315 49.5591H286.911V51.1932H305.315V49.5591Z" fill="white" stroke="black" stroke-miterlimit="10"/>
<path d="M318.703 34.0462L307.43 48.5928L308.722 49.5937L319.994 35.0471L318.703 34.0462Z" fill="white" stroke="black" stroke-miterlimit="10"/>
<path d="M350.92 25.8008C356.402 20.319 356.402 11.4183 350.92 5.93655C345.438 0.454745 336.537 0.454745 331.055 5.93655L350.92 25.8008Z" fill="white" stroke="black" stroke-miterlimit="10"/>
<path d="M283.307 5.40346C277.825 -0.0783358 268.924 -0.0783358 263.443 5.40346C257.961 10.8853 257.961 19.7859 263.443 25.2677L283.307 5.40346Z" fill="white" stroke="black" stroke-miterlimit="10"/>
<path d="M599.629 617.395H560.515C558.081 617.395 556.088 615.402 556.088 612.968V611.473C556.088 609.039 558.081 607.046 560.515 607.046H599.629C602.063 607.046 604.056 609.039 604.056 611.473V612.968C604.056 615.402 602.063 617.395 599.629 617.395Z" fill="white" stroke="black" stroke-miterlimit="10"/>
<path d="M599.629 627.756H560.515C558.081 627.756 556.088 625.762 556.088 623.329V621.834C556.088 619.4 558.081 617.406 560.515 617.406H599.629C602.063 617.406 604.056 619.4 604.056 621.834V623.329C604.056 625.762 602.063 627.756 599.629 627.756Z" fill="white" stroke="black" stroke-miterlimit="10"/>
<path d="M599.629 638.105H560.515C558.081 638.105 556.088 636.112 556.088 633.678V632.183C556.088 629.749 558.081 627.756 560.515 627.756H599.629C602.063 627.756 604.056 629.749 604.056 632.183V633.678C604.056 636.112 602.063 638.105 599.629 638.105Z" fill="white" stroke="black" stroke-miterlimit="10"/>
<path d="M597.184 657.645H562.948C559.17 657.645 556.076 654.551 556.076 650.772V644.978C556.076 641.2 559.17 638.105 562.948 638.105H597.184C600.962 638.105 604.056 641.2 604.056 644.978V650.772C604.056 654.551 600.962 657.645 597.184 657.645Z" fill="white" stroke="black" stroke-miterlimit="10"/>
<path d="M589.21 548.496C586.139 549.168 583.346 550.721 581.179 553.004C579.093 555.195 576.473 558.463 575.187 563.075C572.985 571.014 578.594 574.109 580.738 574.746C582.882 575.383 591.215 576.577 598.099 567.027C598.099 567.027 609.028 552.239 603.245 548.809C599.768 546.758 593.591 547.534 589.21 548.496Z" fill="white" stroke="black" stroke-miterlimit="10"/>
<path d="M584.342 526.708C584.342 526.708 568.106 558.126 573.518 580.726C578.93 603.325 577.018 607.034 577.018 607.034H584.342C584.342 607.034 570.331 563.087 584.342 526.708Z" fill="white" stroke="black" stroke-miterlimit="10"/>
<path d="M563.655 527.009C566.727 527.681 569.52 529.234 571.687 531.517C573.773 533.708 576.392 536.976 577.679 541.588C579.881 549.527 574.271 552.621 572.127 553.259C569.983 553.896 561.65 555.09 554.766 545.54C554.766 545.54 543.837 530.752 549.62 527.322C553.109 525.259 559.275 526.047 563.655 527.009Z" fill="white" stroke="black" stroke-miterlimit="10"/>
<path d="M546.769 581.282C546.769 581.282 545.541 584.944 551.904 588.004C558.266 591.064 566.124 589.186 570.783 592.767C575.442 596.348 582.662 593.81 577.875 589.314C573.089 584.828 569.809 579.729 546.769 581.282Z" fill="white" stroke="black" stroke-miterlimit="10"/>
<path d="M595.665 520.577C593.452 520.218 591.18 520.542 589.21 521.608C587.472 522.547 585.525 524.077 584.366 526.534C581.897 531.726 581.48 535.631 582.164 535.933C582.847 536.234 588.584 537.833 597.404 531.876C605.389 526.487 604.033 521.933 595.665 520.577Z" fill="white" stroke="black" stroke-miterlimit="10"/>
<path d="M584.343 532.131C584.343 532.131 590.948 524.065 599.756 524.065Z" fill="white"/>
<path d="M584.343 532.131C584.343 532.131 590.948 524.065 599.756 524.065" stroke="black" stroke-miterlimit="10"/>
<path d="M550.258 582.545C551.904 582.731 566.02 583.276 571.154 586.579C576.288 589.881 578.374 591.898 578.374 591.898" fill="white"/>
<path d="M550.258 582.545C551.904 582.731 566.02 583.276 571.154 586.579C576.288 589.881 578.374 591.898 578.374 591.898" stroke="black" stroke-miterlimit="10"/>
</svg>
