<svg width="128" height="128" viewBox="0 0 128 128" fill="none" xmlns="http://www.w3.org/2000/svg">
<g filter="url(#filter0_d_609_351)">
<circle cx="64" cy="60" r="60" fill="#E7E7E7"/>
<path d="M88.5 87.625V81.375C88.5 78.0598 87.183 74.8804 84.8388 72.5362C82.4946 70.192 79.3152 68.875 76 68.875H51C47.6848 68.875 44.5054 70.192 42.1612 72.5362C39.817 74.8804 38.5 78.0598 38.5 81.375V87.625" stroke="#727272" stroke-width="2.5" stroke-linecap="round" stroke-linejoin="round"/>
<path d="M63.5 56.375C70.4036 56.375 76 50.7786 76 43.875C76 36.9714 70.4036 31.375 63.5 31.375C56.5964 31.375 51 36.9714 51 43.875C51 50.7786 56.5964 56.375 63.5 56.375Z" stroke="#727272" stroke-width="2.5" stroke-linecap="round" stroke-linejoin="round"/>
</g>
<g filter="url(#filter1_d_609_351)">
<circle cx="109" cy="107" r="11" fill="white"/>
</g>
<path fill-rule="evenodd" clip-rule="evenodd" d="M107.448 111.025L114.291 104.183C114.759 103.746 114.952 103.089 114.793 102.469C114.635 101.849 114.151 101.365 113.531 101.207C112.911 101.048 112.254 101.241 111.818 101.709L104.958 108.569C104.914 108.614 104.876 108.666 104.847 108.721L103.225 111.994C103.136 112.175 103.147 112.388 103.254 112.559C103.361 112.73 103.548 112.834 103.75 112.834C103.846 112.831 103.94 112.805 104.024 112.758L107.297 111.136C107.352 111.106 107.403 111.069 107.448 111.025ZM114.25 112.834C114.572 112.834 114.833 112.572 114.833 112.25C114.833 111.928 114.572 111.667 114.25 111.667H109C108.678 111.667 108.417 111.928 108.417 112.25C108.417 112.572 108.678 112.834 109 112.834H114.25ZM111.52 105.303L110.698 104.48L105.868 109.334L105.057 110.967L106.667 110.133L111.52 105.303ZM113.063 102.333C113.223 102.333 113.376 102.398 113.486 102.514C113.6 102.627 113.662 102.781 113.659 102.941C113.655 103.101 113.587 103.252 113.468 103.36L112.343 104.48L111.52 103.658L112.64 102.514C112.75 102.398 112.903 102.333 113.063 102.333Z" fill="#727272"/>
<defs>
<filter id="filter0_d_609_351" x="0" y="0" width="128" height="128" filterUnits="userSpaceOnUse" color-interpolation-filters="sRGB">
<feFlood flood-opacity="0" result="BackgroundImageFix"/>
<feColorMatrix in="SourceAlpha" type="matrix" values="0 0 0 0 0 0 0 0 0 0 0 0 0 0 0 0 0 0 127 0" result="hardAlpha"/>
<feOffset dy="4"/>
<feGaussianBlur stdDeviation="2"/>
<feComposite in2="hardAlpha" operator="out"/>
<feColorMatrix type="matrix" values="0 0 0 0 0 0 0 0 0 0 0 0 0 0 0 0 0 0 0.25 0"/>
<feBlend mode="normal" in2="BackgroundImageFix" result="effect1_dropShadow_609_351"/>
<feBlend mode="normal" in="SourceGraphic" in2="effect1_dropShadow_609_351" result="shape"/>
</filter>
<filter id="filter1_d_609_351" x="94" y="96" width="30" height="30" filterUnits="userSpaceOnUse" color-interpolation-filters="sRGB">
<feFlood flood-opacity="0" result="BackgroundImageFix"/>
<feColorMatrix in="SourceAlpha" type="matrix" values="0 0 0 0 0 0 0 0 0 0 0 0 0 0 0 0 0 0 127 0" result="hardAlpha"/>
<feOffset dy="4"/>
<feGaussianBlur stdDeviation="2"/>
<feComposite in2="hardAlpha" operator="out"/>
<feColorMatrix type="matrix" values="0 0 0 0 0 0 0 0 0 0 0 0 0 0 0 0 0 0 0.25 0"/>
<feBlend mode="normal" in2="BackgroundImageFix" result="effect1_dropShadow_609_351"/>
<feBlend mode="normal" in="SourceGraphic" in2="effect1_dropShadow_609_351" result="shape"/>
</filter>
</defs>
</svg>
