<svg width="16" height="16" viewBox="0 0 16 16" fill="none" xmlns="http://www.w3.org/2000/svg">
<path d="M12.2 8C13.7464 8 15 6.433 15 4.5C15 2.567 13.7464 1 12.2 1C10.6536 1 9.40002 2.567 9.40002 4.5C9.40002 6.433 10.6536 8 12.2 8Z" fill="#FD7A7A" stroke="#FD7A7A" stroke-width="1.5" stroke-linecap="round" stroke-linejoin="round"/>
<path d="M12.2 8.00024V15" stroke="#FD7A7A" stroke-width="1.5" stroke-linecap="round" stroke-linejoin="round"/>
<path d="M4 1L4 15" stroke="#FD7A7A" stroke-width="1.5" stroke-linecap="round" stroke-linejoin="round"/>
<path d="M6.83334 1V3.91667C6.83334 4.29969 6.75789 4.67896 6.61132 5.03283C6.46474 5.38669 6.2499 5.70823 5.97906 5.97906C5.70823 6.2499 5.38669 6.46474 5.03283 6.61132C4.67896 6.75789 4.29969 6.83334 3.91667 6.83334V6.83334C3.14312 6.83334 2.40125 6.52604 1.85427 5.97906C1.30729 5.43208 1 4.69022 1 3.91667V1" stroke="#FD7A7A" stroke-width="1.5" stroke-linecap="round" stroke-linejoin="round"/>
</svg>
