<svg width="17" height="17" viewBox="0 0 17 17" fill="none" xmlns="http://www.w3.org/2000/svg">
<path d="M4.25 1.41675L2.125 4.25008V14.1667C2.125 14.5425 2.27426 14.9028 2.53993 15.1685C2.80561 15.4342 3.16594 15.5834 3.54167 15.5834H13.4583C13.8341 15.5834 14.1944 15.4342 14.4601 15.1685C14.7257 14.9028 14.875 14.5425 14.875 14.1667V4.25008L12.75 1.41675H4.25Z" stroke="#6C99EC" stroke-width="2" stroke-linecap="round" stroke-linejoin="round"/>
<path d="M11.3334 7.08325C11.3334 7.8347 11.0348 8.55537 10.5035 9.08672C9.97214 9.61807 9.25147 9.91659 8.50002 9.91659C7.74857 9.91659 7.0279 9.61807 6.49655 9.08672C5.9652 8.55537 5.66669 7.8347 5.66669 7.08325" stroke="#6C99EC" stroke-width="2" stroke-linecap="round" stroke-linejoin="round"/>
<path d="M2.125 4.25H14.875" stroke="#6C99EC" stroke-width="2" stroke-linecap="round" stroke-linejoin="round"/>
</svg>
